<?xml version="1.0" encoding="utf-8"?>
<!-- Generator: Adobe Illustrator 25.2.0, SVG Export Plug-In . SVG Version: 6.00 Build 0)  -->
<svg version="1.1" id="Layer_1" xmlns="http://www.w3.org/2000/svg" xmlns:xlink="http://www.w3.org/1999/xlink" x="0px" y="0px"
	 viewBox="0 0 138.02 42.5" style="enable-background:new 0 0 138.02 42.5;" xml:space="preserve">
<style type="text/css">
	.st0{fill:#78CDFA;}
	.st1{fill:#017FFF;}
	.st2{fill:#0387F7;}
	.st3{fill:#0693FC;}
	.st4{fill:#969FD2;}
	.st5{fill:#2B3A4B;}
	.st6{fill:#324554;}
	.st7{fill:#5B6596;}
</style>
<g>
	<g>
		<polygon class="st0" points="108.97,4.2 93.51,9.1 91.85,7.19 96.55,3.73 108.71,3.92 		"/>
		<polygon class="st1" points="97.02,15.18 109.26,4.69 109.37,5.07 103.28,15.4 97.84,17.57 		"/>
		<polygon class="st2" points="108.97,4.2 93.51,9.1 96.89,11.24 109.26,4.37 		"/>
		<polygon class="st3" points="96.89,11.24 97.02,15.18 109.26,4.69 109.26,4.37 		"/>
		<polygon class="st4" points="96.28,0.12 92.47,1.33 92.05,0.86 93.21,0 96.22,0.05 		"/>
		<polygon class="st5" points="93.33,2.83 96.35,0.24 96.38,0.33 94.88,2.88 93.53,3.42 		"/>
		<polygon class="st6" points="96.28,0.12 92.47,1.33 93.3,1.86 96.35,0.16 		"/>
		<polygon class="st7" points="93.3,1.86 93.33,2.83 96.35,0.24 96.35,0.16 		"/>
	</g>
	<g>
		<path class="st1" d="M7.45,32.6c-1.7,0-3.2-0.45-4.5-1.35S0.68,29.07,0,27.42l1.3-1.08c0.6,1.42,1.43,2.53,2.51,3.33
			s2.28,1.2,3.62,1.2c0.93,0,1.8-0.2,2.6-0.6c0.8-0.4,1.43-0.96,1.91-1.69c0.47-0.73,0.71-1.6,0.71-2.62c0-0.91-0.21-1.61-0.63-2.12
			c-0.42-0.51-1.04-0.94-1.85-1.31c-0.81-0.37-1.79-0.77-2.94-1.22c-0.89-0.35-1.76-0.75-2.61-1.19c-0.85-0.44-1.54-1-2.09-1.68
			c-0.55-0.68-0.82-1.55-0.82-2.61c0-1.02,0.27-1.92,0.8-2.72c0.54-0.8,1.27-1.43,2.21-1.9c0.94-0.47,2-0.7,3.18-0.7
			c1.19,0,2.28,0.27,3.28,0.82s1.84,1.32,2.55,2.32l-1.18,1.16c-1.11-1.76-2.66-2.64-4.65-2.64c-1.23,0-2.23,0.33-3.01,1
			c-0.77,0.66-1.15,1.52-1.15,2.58c0,0.76,0.22,1.38,0.66,1.86c0.44,0.48,1.02,0.89,1.76,1.23c0.73,0.34,1.54,0.68,2.42,1.02
			c1.26,0.47,2.35,0.94,3.28,1.4c0.93,0.46,1.64,1.05,2.15,1.76c0.51,0.71,0.76,1.68,0.76,2.89c0,1.35-0.31,2.53-0.95,3.54
			c-0.63,1.01-1.49,1.79-2.6,2.33C10.11,32.32,8.86,32.6,7.45,32.6z"/>
		<path class="st1" d="M20.12,31.95V11.16h2.15v2.96c0.76-1.16,1.73-2.06,2.92-2.68c1.19-0.62,2.52-0.93,4-0.93
			c1.75,0,3.25,0.4,4.51,1.2c1.26,0.8,2.12,1.9,2.58,3.29c0.74-1.34,1.74-2.42,2.99-3.25c1.25-0.83,2.76-1.24,4.54-1.24
			c1.48,0,2.78,0.3,3.92,0.9c1.14,0.6,2.04,1.48,2.7,2.63c0.66,1.15,0.99,2.57,0.99,4.26v13.64h-2.15V18.94
			c0-2.03-0.54-3.64-1.6-4.83s-2.48-1.79-4.22-1.79c-1.23,0-2.35,0.27-3.35,0.82c-1,0.55-1.79,1.24-2.37,2.08
			c-0.58,0.84-0.87,1.7-0.87,2.58v14.15h-2.15V18.59c0-1.92-0.53-3.45-1.57-4.58c-1.05-1.13-2.44-1.69-4.17-1.69
			c-1.2,0-2.31,0.26-3.33,0.78c-1.02,0.52-1.83,1.18-2.44,1.97c-0.61,0.79-0.91,1.6-0.91,2.43v14.45H20.12z"/>
		<path class="st1" d="M62.54,32.6c-1.43,0-2.54-0.49-3.32-1.47c-0.78-0.98-1.17-2.37-1.17-4.15V12.79h-1.97v-1.62h1.97V3.41h2.15
			v7.75h5.32v1.62h-5.32v14.09c0,1.24,0.24,2.2,0.71,2.85c0.47,0.66,1.15,0.98,2.03,0.98c0.85,0,1.58-0.23,2.17-0.69l0.55,1.73
			c-0.39,0.26-0.87,0.46-1.42,0.62C63.69,32.52,63.12,32.6,62.54,32.6z"/>
		<path class="st1" d="M70.4,42.5V11.16h2.15v4.73c0.84-1.68,2.04-2.99,3.61-3.95c1.57-0.95,3.32-1.43,5.26-1.43
			c2,0,3.79,0.48,5.36,1.44c1.57,0.96,2.81,2.27,3.71,3.93c0.91,1.66,1.36,3.55,1.36,5.67c0,2.11-0.45,4-1.36,5.66
			c-0.91,1.66-2.14,2.98-3.7,3.94s-3.34,1.44-5.33,1.44c-1.92,0-3.67-0.48-5.25-1.45c-1.58-0.97-2.8-2.3-3.66-4.01V42.5H70.4z
			 M81.05,30.69c1.66,0,3.15-0.39,4.44-1.18c1.3-0.78,2.32-1.86,3.06-3.24c0.74-1.37,1.11-2.95,1.11-4.72
			c0-1.77-0.37-3.35-1.11-4.73c-0.74-1.38-1.75-2.46-3.05-3.24c-1.29-0.78-2.78-1.17-4.46-1.17c-1.68,0-3.17,0.39-4.47,1.17
			c-1.3,0.78-2.32,1.85-3.05,3.23s-1.11,2.95-1.11,4.74c0,1.77,0.37,3.35,1.11,4.73c0.74,1.38,1.76,2.46,3.06,3.24
			C77.9,30.3,79.39,30.69,81.05,30.69z"/>
	</g>
	<g>
		<path class="st7" d="M95.93,31.95V20.5h0.63v1.72c0.24-0.56,0.68-1.05,1.33-1.46c0.65-0.41,1.49-0.62,2.52-0.62
			c0.9,0,1.65,0.18,2.28,0.54c0.62,0.36,1.1,0.89,1.42,1.59c0.33,0.7,0.49,1.57,0.49,2.59v7.09h-0.63v-7.01
			c0-1.38-0.31-2.43-0.94-3.14c-0.63-0.72-1.51-1.07-2.66-1.07c-0.81,0-1.49,0.16-2.06,0.48c-0.57,0.32-1.01,0.74-1.31,1.25
			c-0.3,0.51-0.45,1.06-0.45,1.64v7.85H95.93z"/>
		<path class="st7" d="M113.83,32.31c-1.19,0-2.25-0.27-3.17-0.8c-0.92-0.53-1.64-1.25-2.16-2.16c-0.52-0.91-0.78-1.92-0.78-3.05
			c0-0.87,0.15-1.68,0.46-2.43c0.31-0.75,0.74-1.4,1.28-1.96c0.54-0.56,1.16-0.99,1.87-1.3c0.71-0.31,1.46-0.47,2.26-0.47
			c1.02,0,1.96,0.25,2.82,0.75s1.56,1.18,2.11,2.05c0.55,0.86,0.86,1.85,0.94,2.94c0.01,0.07,0.01,0.13,0.01,0.17
			c0,0.05,0,0.11,0,0.17H108.3c0,1.06,0.24,2,0.71,2.83c0.47,0.83,1.13,1.48,1.96,1.96c0.83,0.47,1.78,0.71,2.85,0.71
			c1.01,0,1.92-0.22,2.75-0.65c0.82-0.43,1.47-1.04,1.95-1.81l0.49,0.31c-0.54,0.86-1.27,1.54-2.18,2.01
			C115.93,32.07,114.93,32.31,113.83,32.31z M108.32,25.66h10.53c-0.09-0.94-0.38-1.78-0.87-2.53c-0.49-0.75-1.12-1.33-1.88-1.77
			c-0.76-0.43-1.59-0.65-2.51-0.65c-0.91,0-1.75,0.22-2.51,0.65c-0.77,0.43-1.4,1.02-1.89,1.77
			C108.71,23.88,108.42,24.73,108.32,25.66z"/>
		<path class="st7" d="M121.12,31.95l4.81-5.86l-4.18-5.59h0.69l3.96,5.17l3.96-5.17h0.69l-4.18,5.59l4.81,5.86h-0.71l-4.56-5.57
			l-4.56,5.57H121.12z"/>
		<path class="st7" d="M136.55,32.31c-0.7,0-1.24-0.25-1.62-0.74c-0.38-0.5-0.57-1.19-0.57-2.1v-8.5h-0.96V20.5h0.96v-4.27h0.63
			v4.27h3.04v0.47h-3.04v8.5c0,0.75,0.14,1.32,0.42,1.71c0.28,0.4,0.69,0.59,1.22,0.59c0.49,0,0.91-0.13,1.24-0.38l0.16,0.49
			c-0.17,0.13-0.39,0.23-0.65,0.31C137.1,32.27,136.83,32.31,136.55,32.31z"/>
	</g>
</g>
</svg>
