<svg id="Layer_1" data-name="Layer 1" xmlns="http://www.w3.org/2000/svg" viewBox="0 0 57.89 17.83"><defs><style>.cls-1{fill:#78cdfa;}.cls-2{fill:#017fff;}.cls-3{fill:#0387f7;}.cls-4{fill:#0693fc;}.cls-5{fill:#969fd2;}.cls-6{fill:#2b3a4b;}.cls-7{fill:#324554;}.cls-8{fill:#5b6596;}</style></defs><polygon class="cls-1" points="45.71 1.76 39.22 3.82 38.52 3.02 40.49 1.56 45.6 1.64 45.71 1.76"/><polygon class="cls-2" points="40.69 6.37 45.83 1.97 45.87 2.12 43.32 6.46 41.04 7.37 40.69 6.37"/><polygon class="cls-3" points="45.71 1.76 39.22 3.82 40.64 4.72 45.83 1.83 45.71 1.76"/><polygon class="cls-4" points="40.64 4.72 40.69 6.37 45.83 1.97 45.83 1.83 40.64 4.72"/><polygon class="cls-5" points="40.38 0.05 38.78 0.56 38.61 0.36 39.1 0 40.36 0.02 40.38 0.05"/><polygon class="cls-6" points="39.15 1.19 40.41 0.1 40.43 0.14 39.8 1.21 39.23 1.43 39.15 1.19"/><polygon class="cls-7" points="40.38 0.05 38.78 0.56 39.13 0.78 40.41 0.07 40.38 0.05"/><polygon class="cls-8" points="39.13 0.78 39.15 1.19 40.41 0.1 40.41 0.07 39.13 0.78"/><path class="cls-2" d="M3.12,13.67a3.26,3.26,0,0,1-1.88-.56A3.55,3.55,0,0,1,0,11.5l.54-.45a3.3,3.3,0,0,0,1.06,1.4,2.5,2.5,0,0,0,1.52.5,2.39,2.39,0,0,0,1.09-.25A2.11,2.11,0,0,0,5,12a2,2,0,0,0,.29-1.1A1.33,1.33,0,0,0,5,10a2.12,2.12,0,0,0-.77-.55C3.93,9.3,3.51,9.13,3,8.94a10.73,10.73,0,0,1-1.09-.5,2.58,2.58,0,0,1-.88-.71A1.67,1.67,0,0,1,.72,6.64,2,2,0,0,1,1.05,5.5,2.35,2.35,0,0,1,2,4.7a3,3,0,0,1,1.33-.29,2.82,2.82,0,0,1,1.38.34,3.31,3.31,0,0,1,1.07,1l-.5.48a2.19,2.19,0,0,0-1.95-1.1,1.93,1.93,0,0,0-1.26.41,1.38,1.38,0,0,0-.48,1.09,1.16,1.16,0,0,0,.27.78,2.31,2.31,0,0,0,.74.51l1,.43A13.72,13.72,0,0,1,5,8.91a2.39,2.39,0,0,1,.9.74,2.07,2.07,0,0,1,.32,1.21,2.7,2.7,0,0,1-.4,1.49,2.59,2.59,0,0,1-1.09,1A3.5,3.5,0,0,1,3.12,13.67Z"/><path class="cls-2" d="M8.44,13.4V4.68h.9V5.92A3.3,3.3,0,0,1,10.57,4.8a3.55,3.55,0,0,1,1.67-.39,3.46,3.46,0,0,1,1.89.5,2.54,2.54,0,0,1,1.08,1.38,3.92,3.92,0,0,1,1.26-1.36,3.36,3.36,0,0,1,1.9-.52A3.52,3.52,0,0,1,20,4.79a2.84,2.84,0,0,1,1.13,1.1,3.51,3.51,0,0,1,.42,1.79V13.4h-.91V7.94a2.9,2.9,0,0,0-.67-2,2.27,2.27,0,0,0-1.77-.75,2.92,2.92,0,0,0-2.4,1.21,2,2,0,0,0-.37,1.09V13.4h-.9V7.8a2.7,2.7,0,0,0-.66-1.92,2.25,2.25,0,0,0-1.75-.71,3,3,0,0,0-1.39.33,2.93,2.93,0,0,0-1,.82,1.68,1.68,0,0,0-.38,1V13.4Z"/><path class="cls-2" d="M26.23,13.67a1.68,1.68,0,0,1-1.39-.61,2.76,2.76,0,0,1-.49-1.75V5.36h-.83V4.68h.83V1.43h.9V4.68h2.23v.68H25.25v5.91a2,2,0,0,0,.3,1.2,1,1,0,0,0,.85.41,1.46,1.46,0,0,0,.91-.29l.23.73a2.14,2.14,0,0,1-.59.25A2.5,2.5,0,0,1,26.23,13.67Z"/><path class="cls-2" d="M29.53,17.83V4.68h.9v2A3.94,3.94,0,0,1,32,5a4.13,4.13,0,0,1,2.2-.6A4.25,4.25,0,0,1,36.4,5,4.42,4.42,0,0,1,38,6.66,4.9,4.9,0,0,1,38.53,9,4.9,4.9,0,0,1,38,11.42a4.34,4.34,0,0,1-1.56,1.65,4.18,4.18,0,0,1-2.23.6,4.14,4.14,0,0,1-3.74-2.29v6.45Zm4.47-5a3.49,3.49,0,0,0,1.86-.49A3.42,3.42,0,0,0,37.14,11a4.14,4.14,0,0,0,.47-2,4.14,4.14,0,0,0-.47-2A3.47,3.47,0,0,0,35.87,5.7a3.59,3.59,0,0,0-5,1.35,4.14,4.14,0,0,0-.46,2,4.1,4.1,0,0,0,.46,2,3.38,3.38,0,0,0,1.29,1.36A3.55,3.55,0,0,0,34,12.87Z"/><path class="cls-8" d="M40.24,13.4V8.6h.26v.72a1.35,1.35,0,0,1,.56-.61,2.23,2.23,0,0,1,2,0,1.46,1.46,0,0,1,.6.67,2.53,2.53,0,0,1,.2,1.09v3h-.26V10.46a2,2,0,0,0-.39-1.32,1.41,1.41,0,0,0-1.12-.45,1.76,1.76,0,0,0-.86.2,1.41,1.41,0,0,0-.55.53,1.28,1.28,0,0,0-.19.69V13.4Z"/><path class="cls-8" d="M47.74,13.55a2.65,2.65,0,0,1-1.33-.33A2.49,2.49,0,0,1,45.18,11a2.67,2.67,0,0,1,.73-1.84,2.52,2.52,0,0,1,.79-.54,2.15,2.15,0,0,1,.94-.2,2.32,2.32,0,0,1,1.19.31,2.61,2.61,0,0,1,.89.86,2.55,2.55,0,0,1,.39,1.23.25.25,0,0,1,0,.08V11H45.43a2.47,2.47,0,0,0,.29,1.19,2.18,2.18,0,0,0,.83.82,2.36,2.36,0,0,0,1.19.3A2.3,2.3,0,0,0,48.89,13a2,2,0,0,0,.82-.76l.21.14a2.37,2.37,0,0,1-.91.84A2.67,2.67,0,0,1,47.74,13.55Zm-2.3-2.79h4.41a2.31,2.31,0,0,0-.36-1.06A2.43,2.43,0,0,0,48.7,9a2.11,2.11,0,0,0-1.05-.27A2.17,2.17,0,0,0,46.59,9a2.43,2.43,0,0,0-.79.74A2.31,2.31,0,0,0,45.44,10.76Z"/><path class="cls-8" d="M50.8,13.4l2-2.46L51.06,8.6h.3L53,10.76,54.68,8.6H55l-1.76,2.34,2,2.46h-.3L53,11.06,51.1,13.4Z"/><path class="cls-8" d="M57.27,13.55a.81.81,0,0,1-.68-.31,1.42,1.42,0,0,1-.24-.88V8.79H56V8.6h.4V6.81h.27V8.6h1.27v.19H56.62v3.57a1.32,1.32,0,0,0,.17.72.61.61,0,0,0,.52.25.89.89,0,0,0,.52-.16l.06.2a.68.68,0,0,1-.27.13A1.34,1.34,0,0,1,57.27,13.55Z"/></svg>